<svg id="Capa_1" enable-background="new 0 0 512 512" height="512" viewBox="0 0 512 512" width="512" xmlns="http://www.w3.org/2000/svg"><g><path d="m507.854 157.438-10.056-10.056c-2.676-2.676-6.233-4.149-10.018-4.149-3.783 0-7.341 1.474-10.016 4.148l-11.323 11.323c-2.254-.91-4.682-1.393-7.187-1.393-5.124 0-9.942 1.995-13.567 5.619l-54.561 54.561v-178.765c.002-21.354-17.37-38.726-38.724-38.726h-205.183c-4.143 0-7.5 3.357-7.5 7.5s3.357 7.5 7.5 7.5h205.184c13.082 0 23.726 10.644 23.726 23.726v193.764l-79.755 79.755c-3.539 3.542-3.93 9.052-1.188 13.041l-8.037 29.992c-8.697 1.831-13.875 7.496-17.831 11.843-4.514 4.96-7.127 7.548-12.655 7.548-4.274 0-7.884-7.934-11.376-15.606-4.945-10.868-11.101-24.394-25.028-24.394-14.352 0-20.14 15.903-25.247 29.935-2.731 7.505-7.304 20.065-11.151 20.065-4.416 0-6.983-3.471-11.788-11.391-4.765-7.854-11.29-18.609-24.612-18.609-4.143 0-7.5 3.357-7.5 7.5s3.357 7.5 7.5 7.5c4.416 0 6.983 3.471 11.788 11.391 4.765 7.854 11.29 18.609 24.612 18.609 14.352 0 20.14-15.903 25.247-29.935 2.731-7.505 7.304-20.065 11.151-20.065 4.274 0 7.884 7.934 11.376 15.606 4.945 10.868 11.101 24.394 25.028 24.394 12.416 0 18.966-7.197 23.749-12.452 8.745-9.609 9.481-6.43 14.597-7.804l34.941-9.363c1.74 1.198 3.768 1.804 5.8 1.804 2.622-.001 5.246-.998 7.244-2.994l33.135-33.135v101.222c-10.972 0-205.218 0-215.45 0-4.143 0-7.5 3.357-7.5 7.5v32.731c0 15.753-12.281 28.684-27.77 29.743-17.764-1.137-31.872-15.943-31.872-33.99v-416.164c0-11.826-4.551-23.217-12.474-31.767h36.169c4.143 0 7.5-3.357 7.5-7.5s-3.357-7.5-7.5-7.5h-70.463c-25.787 0-46.766 20.979-46.766 46.767v52.276c0 7.99 6.5 14.49 14.49 14.49h64.043v353.646c0 24.715 20.106 44.821 44.821 44.821 49.615 0 54.128-.009 85.523 0 4.143 0 7.5-3.357 7.5-7.5s-3.357-7.5-7.5-7.5h-52.1c7.082-7.929 11.398-18.379 11.398-29.821v-25.231h270.733v7.037c0 26.476-21.54 48.016-48.016 48.016h-150.297c-4.143 0-7.5 3.357-7.5 7.5s3.357 7.5 7.5 7.5h150.298c34.747 0 63.016-28.269 63.016-63.016v-14.537c0-4.143-3.357-7.5-7.5-7.5h-55.283v-116.223l34.654-34.655c2.929-2.93 2.929-7.678 0-10.607-2.93-2.928-7.678-2.928-10.607 0l-79.424 79.425-25.404-25.404 145.949-145.947c.791-.791 1.842-1.227 2.96-1.227s2.169.435 2.96 1.227l19.483 19.482c.791.791 1.227 1.842 1.227 2.96s-.436 2.169-1.228 2.96l-45.319 45.319c-2.929 2.93-2.929 7.678 0 10.607 2.93 2.928 7.678 2.928 10.607 0l28.544-28.544 4.969 4.969c.337.336.407.72.407.981 0 .263-.07.646-.407.981l-67.916 67.917c-2.929 2.93-2.929 7.678 0 10.607 2.931 2.929 7.678 2.928 10.607 0l67.915-67.917c6.405-6.402 6.407-16.772.001-23.178l-4.969-4.969 6.167-6.168c3.624-3.624 5.621-8.442 5.621-13.567 0-2.504-.484-4.932-1.394-7.186l11.324-11.324c5.522-5.521 5.522-14.506-.002-20.029zm-492.851-58.905v-51.766c0-17.517 14.25-31.767 31.766-31.767s31.767 14.25 31.767 31.767v51.767h-63.533zm292.376 239.199 10.125 10.125-13.831 3.706zm179.623-160.623c-.911-.911 3.287 3.288-8.875-8.876l9.655-9.654 8.875 8.875z"/><path d="m332.679 181.958v-19.712c0-9.082-7.389-16.471-16.471-16.471h-160.019c-9.082 0-16.471 7.389-16.471 16.471v19.712c0 9.082 7.389 16.471 16.471 16.471h160.019c9.082 0 16.471-7.389 16.471-16.471zm-177.96 0v-19.712c0-.811.66-1.471 1.471-1.471h160.019c.811 0 1.471.66 1.471 1.471v19.712c0 .811-.66 1.471-1.471 1.471h-160.02c-.81 0-1.47-.66-1.47-1.471z"/><path d="m187.416 33.594h-67.438c-4.143 0-7.5 3.357-7.5 7.5s3.357 7.5 7.5 7.5h67.438c4.143 0 7.5-3.357 7.5-7.5s-3.357-7.5-7.5-7.5z"/><path d="m226.755 66.188h-106.778c-4.143 0-7.5 3.357-7.5 7.5s3.357 7.5 7.5 7.5h106.777c4.143 0 7.5-3.357 7.5-7.5s-3.357-7.5-7.499-7.5z"/><path d="m234.255 106.284c0-4.143-3.357-7.5-7.5-7.5h-106.778c-4.143 0-7.5 3.357-7.5 7.5s3.357 7.5 7.5 7.5h106.777c4.143 0 7.501-3.357 7.501-7.5z"/><path d="m288.967 223.5h-105.535c-4.143 0-7.5 3.357-7.5 7.5s3.357 7.5 7.5 7.5h105.535c4.143 0 7.5-3.357 7.5-7.5s-3.358-7.5-7.5-7.5z"/><path d="m288.967 259.049h-105.535c-4.143 0-7.5 3.357-7.5 7.5s3.357 7.5 7.5 7.5h105.535c4.143 0 7.5-3.357 7.5-7.5s-3.358-7.5-7.5-7.5z"/><path d="m288.967 294.598h-105.535c-4.143 0-7.5 3.357-7.5 7.5s3.357 7.5 7.5 7.5h105.535c4.143 0 7.5-3.357 7.5-7.5s-3.358-7.5-7.5-7.5z"/></g></svg>