<svg height="496pt" viewBox="0 0 496 496" width="496pt" xmlns="http://www.w3.org/2000/svg"><path d="m373.679688 374.320312 18.320312-70.320312 32.800781 10.960938-.800781 2.398437v58.640625l-24 16 16 24-48 40h-15.679688zm0 0" fill="#aab2bd"/><path d="m488 370.558594v85.441406h-120l48-40-16-24 24-16v-58.640625l.800781-2.398437 30.398438 10.078124c19.601562 6.5625 32.800781 24.882813 32.800781 45.519532zm0 0" fill="#838f9b"/><path d="m373.679688 374.320312-21.359376 81.679688h-8.320312l-8-64 16.320312-32.878906zm0 0" fill="#e6e9ed"/><path d="m287.28125 359.519531 16.71875 32.480469-8 64h-8.320312l-26.398438-79.121094 2.71875-.878906 23.199219-16.558594zm0 0" fill="#e6e9ed"/><path d="m261.28125 376.878906 26.398438 79.121094h-15.679688l-48-40 16-24-32-16v-24l11.921875 5.921875c2.636719 1.359375 5.679687 2.078125 8.636719 2.078125 10.722656 0 19.441406-8.71875 19.441406-19.441406v-.878906c0-1.199219-.078125-2.398438-.320312-3.519532zm0 0" fill="#aab2bd"/><path d="m272 456h-64v-80l32 16-16 24zm0 0" fill="#838f9b"/><path d="m352.320312 359.121094-32.320312-23.121094-32.800781 23.441406.082031.078125 16.71875 32.480469-8 64h48l-8-64zm0 0" fill="#ff826e"/><path d="m464 280s-6 6-18 12-30 12-54 12l-24-8v-32c15.359375-11.519531 26.398438-28.480469 30.398438-48h1.601562c17.679688 0 32-14.320312 32-32v18.71875c0 29.042969 11.519531 56.800781 32 77.28125zm0 0" fill="#fcd770"/><path d="m400 112c-10 14.960938-26.800781 24-44.878906 24h-3.121094v-24l-1.359375 1.359375c-14.480469 14.480469-34.160156 22.640625-54.640625 22.640625v-24l-1.359375 1.359375c-14.480469 14.480469-34.160156 22.640625-54.640625 22.640625v16c-17.679688 0-32 14.320312-32 32v-64c0-61.839844 50.160156-112 112-112 30.878906 0 58.878906 12.558594 79.199219 32.800781 20.242187 20.320313 32.800781 48.320313 32.800781 79.199219v64c0-8.800781-3.601562-16.800781-9.359375-22.640625-5.839844-5.757813-13.839844-9.359375-22.640625-9.359375zm0 0" fill="#fcd770"/><path d="m422.640625 161.359375c5.757813 5.839844 9.359375 13.839844 9.359375 22.640625 0 17.679688-14.320312 32-32 32h-1.601562c1.042968-5.121094 1.601562-10.480469 1.601562-16v-48c8.800781 0 16.800781 3.601562 22.640625 9.359375zm0 0" fill="#f0d0b4"/><path d="m400 152v48c0 5.519531-.558594 10.878906-1.601562 16-4 19.519531-15.039063 36.480469-30.398438 48-13.359375 10-30 16-48 16s-34.640625-6-48-16c-3.039062-2.320312-5.921875-4.800781-8.558594-7.441406-10.882812-10.878906-18.640625-24.878906-21.839844-40.558594-1.042968-5.121094-1.601562-10.480469-1.601562-16v-64c20.480469 0 40.160156-8.160156 54.640625-22.640625l1.359375-1.359375v24c20.480469 0 40.160156-8.160156 54.640625-22.640625l1.359375-1.359375v24h3.121094c18.078125 0 34.878906-9.039062 44.878906-24zm0 0" fill="#f0d0b4"/><path d="m392 304-18.320312 70.320312-21.359376-15.199218-32.320312-23.121094 48-40zm0 0" fill="#e6e9ed"/><path d="m368 264v32l-48 40-48-40v-32c13.359375 10 30 16 48 16s34.640625-6 48-16zm0 0" fill="#f0d0b4"/><path d="m320 336-32.800781 23.441406-23.199219 16.558594-2.71875.878906-13.601562-40.71875c0-.082031 0-.082031-.078126-.160156-1.042968-5.679688-4.640624-10.640625-9.839843-13.519531l-17.441407-9.28125 51.679688-17.199219zm0 0" fill="#e6e9ed"/><path d="m272 264v32l-51.679688 17.199219-50.558593-26.960938c24.476562-24.476562 38.238281-57.679687 38.238281-92.316406v-9.921875c0 8.800781 3.601562 16.800781 9.359375 22.640625 5.839844 5.757813 13.839844 9.359375 22.640625 9.359375h1.601562c3.199219 15.679688 10.957032 29.679688 21.839844 40.558594 2.636719 2.640625 5.519532 5.121094 8.558594 7.441406zm0 0" fill="#fcd770"/><path d="m248 339.679688v.878906c0 10.722656-8.71875 19.441406-19.441406 19.441406-2.957032 0-6-.71875-8.636719-2.078125l-11.921875-5.921875-80-40-80 40-11.921875 5.921875c-2.636719 1.359375-5.679687 2.078125-8.636719 2.078125-5.363281 0-10.242187-2.160156-13.761718-5.679688-3.519532-3.519531-5.679688-8.398437-5.679688-13.761718v-.878906c0-7.199219 3.921875-13.757813 10.238281-17.199219l109.761719-58.480469 41.761719 22.238281 50.558593 26.960938 17.441407 9.28125c5.199219 2.878906 8.796875 7.839843 9.839843 13.519531.078126.078125.078126.078125.078126.160156.242187 1.121094.320312 2.320313.320312 3.519532zm0 0" fill="#ff826e"/><path d="m241.601562 216h-1.601562c-8.800781 0-16.800781-3.601562-22.640625-9.359375-5.757813-5.839844-9.359375-13.839844-9.359375-22.640625 0-17.679688 14.320312-32 32-32v48c0 5.519531.558594 10.878906 1.601562 16zm0 0" fill="#f0d0b4"/><path d="m208 456v32h-160v-136l80-40 80 40zm0 0" fill="#e6e9ed"/><path d="m496 370.59375c0-24.144531-15.390625-45.496094-38.289062-53.121094l-30.152344-10.046875c27.25-7.328125 41.304687-20.984375 42.097656-21.769531l5.65625-5.65625-5.65625-5.65625c-19.128906-19.128906-29.65625-44.550781-29.65625-71.601562v-82.742188c0-66.167969-53.832031-120-120-120s-120 53.832031-120 120v73.886719c0 30.792969-11.398438 59.761719-31.984375 82.378906l-40.015625-21.335937-113.488281 60.527343c-8.953125 4.773438-14.511719 14.046875-14.511719 24.191407v.9375c0 15.117187 12.296875 27.414062 27.414062 27.414062 4.226563 0 8.472657-1 12.265626-2.886719l.320312-.160156v131.046875h176v-32h280zm-90.640625 43.863281-40.261719 33.542969h-2.410156l34.898438-133.703125 18.414062 6.136719v51.285156l-27.097656 18.066406zm-189.359375-43.402343v-6.101563l.320312.160156h.007813c3.792969 1.886719 8.03125 2.886719 12.257813 2.886719 7.277343 0 13.863281-2.894531 18.773437-7.542969l29.214844 87.542969h-1.671875l-40.261719-33.542969 17.039063-25.554687zm0 17.890624 12.320312 6.160157-12.320312 18.480469zm32-245.359374c14.441406-1.339844 28.136719-6.242188 40-14.355469v14.769531h8c17.375 0 33.960938-5.167969 48-14.769531v14.769531h11.160156c13.503906 0 26.328125-4.433594 36.839844-12.238281v68.238281c0 39.703125-32.296875 72-72 72s-72-32.296875-72-72zm36.34375 227.710937 11.410156 22.167969-5.59375 44.734375-19.144531-57.382813zm24.535156 12.703125-11.382812-22.105469 22.503906-16.070312 22.136719 15.816406-11.097657 22.359375zm46.441406-12.945312 9.191407 6.570312-15.046875 57.640625-5.234375-41.867187zm13.519532-10-35.761719-25.542969 36.625-30.511719 12.664063 4.222656zm-48.839844-73.054688c14.40625 0 27.984375-3.550781 40-9.710938v13.957032l-40 33.339844-40-33.339844v-13.957032c12.015625 6.160157 25.59375 9.710938 40 9.710938zm-49.703125 17 36.625 30.519531-41.203125 29.425781-10.4375-31.289062c-1.722656-7.695312-6.648438-14.382812-13.792969-18.199219l-.984375-.527343zm40.765625 95h17.882812l6 48h-29.882812zm141.167969-120.929688c-9.277344 6.296876-29.101563 16.609376-59.085938 16.882813l-17.144531-5.722656v-22.40625c13.6875-11.320313 23.824219-26.726563 28.710938-44.304688 7.519531-.894531 14.359374-3.832031 20.007812-8.320312 2.488281 23.65625 11.953125 45.785156 27.511719 63.871093zm-44.566407-72.4375c.167969-2.199218.335938-4.394531.335938-6.632812v-38.527344c9.289062 3.3125 16 12.113282 16 22.527344 0 10.535156-6.871094 19.414062-16.335938 22.632812zm-87.664062-190.632812c57.34375 0 104 46.65625 104 104v32.207031c-4.671875-3.535156-10.054688-6.183593-16-7.390625v-40.816406h-16v5.351562c-7.679688 10.382813-19.246094 17.046876-32 18.390626v-35.054688l-15.03125 15.03125c-11.167969 11.167969-25.503906 18.066406-40.96875 19.832031v-34.855469l-15.03125 15.03125c-11.167969 11.167969-25.503906 18.007813-40.96875 19.785157v-23.511719h-16v40.808594c-5.945312 1.214844-11.328125 3.855468-16 7.390625v-32.199219c0-57.34375 46.65625-104 104-104zm-88 145.472656v38.527344c0 2.238281.167969 4.433594.335938 6.632812-9.464844-3.21875-16.335938-12.097656-16.335938-22.632812 0-10.414062 6.710938-19.214844 16-22.527344zm-17.671875 52.941406c5.824219 4.921876 13.007813 8.160157 20.960937 9.105469 4.886719 17.578125 15.023438 32.984375 28.710938 44.304688v22.40625l-42.960938 14.320312-38.488281-20.527343c17.097657-19.886719 27.976563-43.855469 31.777344-69.609376zm-181.800781 136.386719c-1.582032.785157-3.351563 1.199219-5.113282 1.199219-6.292968 0-11.414062-5.121094-11.414062-11.414062v-.9375c0-4.222657 2.320312-8.089844 6.046875-10.074219l105.953125-56.503907 105.953125 56.503907c3.726563 1.984375 6.046875 5.851562 6.046875 10.074219v.9375c0 6.292968-5.121094 11.414062-11.414062 11.414062-1.769532 0-3.53125-.414062-5.113282-1.199219l-95.472656-47.746093zm23.472656 129.199219v-123.046875l72-36 72 36v123.046875zm160-60.257812 33.894531 28.257812h-33.894531zm264 28.257812h-89.894531l36.535156-30.457031-15.542969-23.328125 20.902344-13.933594v-54.511719l20.648438 6.878907c16.359374 5.457031 27.351562 20.703124 27.351562 37.945312zm0 0"/><path d="m368 168c0 4.417969-3.582031 8-8 8s-8-3.582031-8-8 3.582031-8 8-8 8 3.582031 8 8zm0 0"/><path d="m288 168c0 4.417969-3.582031 8-8 8s-8-3.582031-8-8 3.582031-8 8-8 8 3.582031 8 8zm0 0"/><path d="m320 248c17.648438 0 32-14.351562 32-32h-16c0 8.824219-7.175781 16-16 16s-16-7.175781-16-16h-16c0 17.648438 14.351562 32 32 32zm0 0"/><path d="m128 384c4.414062 0 8 3.585938 8 8h16c0-10.414062-6.710938-19.214844-16-22.527344v-17.472656h-16v17.472656c-9.289062 3.3125-16 12.113282-16 22.527344 0 13.230469 10.769531 24 24 24 4.414062 0 8 3.585938 8 8s-3.585938 8-8 8-8-3.585938-8-8h-16c0 10.414062 6.710938 19.214844 16 22.527344v17.472656h16v-17.472656c9.289062-3.3125 16-12.113282 16-22.527344 0-13.230469-10.769531-24-24-24-4.414062 0-8-3.585938-8-8s3.585938-8 8-8zm0 0"/></svg>