<svg width="169" height="147" viewBox="0 0 169 147" fill="none" xmlns="http://www.w3.org/2000/svg">
<path d="M5 64.5H26.5H47.1638C51.0164 64.5 54.8313 63.737 58.3876 62.2552C58.5014 62.2077 58.6147 62.1606 58.7274 62.1136C66.5045 58.8731 72.4403 52.3469 74.9314 44.2985V44.2985C76.6055 38.8899 76.6246 33.1043 74.9861 27.6848L74.8281 27.1621C72.3908 19.1005 63.7565 11.0795 56.1409 7.48321V7.48321C52.1646 5.60553 50.7223 6 46.325 6C40.6901 6 32.5903 6 26.5 6H5V141C5 141.552 5.44772 142 6 142H37.9349C38.14 142 38.3401 141.937 38.5082 141.819L98.4586 99.8788C98.7869 99.6491 99.2207 99.6375 99.5608 99.8495L137.5 123.496M166 142L137.5 123.496M137.5 102C137.5 110.395 137.5 123.496 137.5 123.496M74 135H125" stroke="#6E6D7A" stroke-width="10"/>
</svg>
